<svg width="64" height="64" viewBox="0 0 64 64" fill="none" xmlns="http://www.w3.org/2000/svg">
<path fill-rule="evenodd" clip-rule="evenodd" d="M64 32C64 49.6649 49.6649 64 32 64C14.3351 64 0 49.6649 0 32C0 14.2787 14.3351 0 32 0C49.6649 0 64 14.2787 64 32ZM56.9453 41.8201V21.3898C56.9453 16.9877 54.2363 8.63492 43.9647 8.63492C33.7496 8.63492 30.9277 16.9312 30.8713 21.3898V41.7072C30.8713 41.7637 30.8713 46.1658 28.0494 49.0441C26.3563 50.7372 23.9295 51.5838 20.8254 51.5838C11.1182 51.5838 10.7795 42.836 10.7795 41.8201V22.0106C10.7795 20.9947 9.93298 20.2046 8.91711 20.2046C7.90123 20.2046 7.05467 20.9947 7.05467 22.0106V41.8201C7.05467 46.5044 9.93298 55.3086 20.8254 55.3086C24.9453 55.3086 28.2751 54.067 30.7019 51.6402C34.6526 47.6332 34.5961 41.933 34.5961 41.7072V21.3898C34.5961 21.0511 34.8783 12.3598 43.9647 12.3598C52.8818 12.3598 53.2205 20.4303 53.2205 21.3898V29.8554C51.4145 28.3316 48.5926 27.2028 44.134 26.9206C43.1182 26.8642 42.2152 27.5979 42.1587 28.6702C42.1023 29.6861 42.8924 30.5891 43.9083 30.6455C52.3175 31.2099 52.4303 34.0317 52.6561 40.1834C52.6937 40.7478 52.7313 41.331 52.769 41.933C52.8254 43.0617 53.7284 43.8519 54.8571 43.9083C55.9859 43.8519 56.8889 42.9489 56.9453 41.8201Z" fill="#FFA319"/>
</svg>
