<svg width="299" height="64" viewBox="0 0 299 64" fill="none" xmlns="http://www.w3.org/2000/svg">
<path d="M90.402 31.1116C90.3515 31.6162 90.3011 32.1461 90.2506 32.7012C90.2506 33.2563 90.2506 33.8114 90.2506 34.3666C90.2506 36.1328 90.402 37.9496 90.7048 39.8168C91.058 41.6335 91.6636 43.3241 92.5215 44.8885C93.3794 46.4024 94.5401 47.664 96.0036 48.6733C97.4671 49.6322 99.3343 50.1116 101.605 50.1116C104.179 50.1116 106.273 49.6069 107.888 48.5976C109.503 47.5379 110.891 45.9482 112.051 43.8287C112.203 43.5259 112.379 43.2484 112.581 42.996C112.783 42.6933 113.061 42.5419 113.414 42.5419C113.616 42.5419 113.792 42.6176 113.944 42.769C114.146 42.8699 114.247 43.1222 114.247 43.5259C114.247 44.2324 113.944 45.0399 113.338 45.9482C112.733 46.8566 112.203 47.5883 111.749 48.1435C110.689 49.4555 109.629 50.5153 108.569 51.3227C107.56 52.0797 106.551 52.6853 105.541 53.1395C104.583 53.5432 103.624 53.7955 102.665 53.8964C101.706 54.0478 100.798 54.1235 99.9398 54.1235C97.0634 54.1235 94.641 53.6694 92.6729 52.761C90.7552 51.8526 89.2161 50.7929 88.0554 49.5817C86.8947 48.421 85.8097 46.7809 84.8004 44.6614C83.7911 42.5419 83.2864 39.8168 83.2864 36.4861C83.2864 34.5179 83.4883 32.7264 83.892 31.1116C84.2957 29.4462 84.8004 27.9828 85.406 26.7211C86.062 25.409 86.7938 24.2736 87.6012 23.3148C88.4086 22.3559 89.2161 21.5485 90.0235 20.8924C91.1337 19.9841 92.5215 19.1514 94.1869 18.3944C95.8522 17.587 97.8203 17.1833 100.091 17.1833C102.211 17.1833 104.204 17.5618 106.071 18.3187C107.939 19.0757 109.654 20.413 111.219 22.3307C112.026 23.34 112.733 24.5007 113.338 25.8128C113.944 27.1249 114.247 28.3612 114.247 29.5219C114.247 30.2789 114.045 30.7331 113.641 30.8845C113.237 31.0359 112.884 31.1116 112.581 31.1116H90.402ZM103.876 29.1434C105.34 29.1434 106.223 29.0173 106.526 28.765C106.879 28.4622 107.055 27.9575 107.055 27.251C107.055 25.9389 106.854 24.8539 106.45 23.996C106.046 23.0877 105.617 22.3559 105.163 21.8008C104.204 20.6401 103.195 19.9084 102.135 19.6056C101.126 19.3028 100.268 19.1514 99.5614 19.1514C98.1483 19.1514 96.9877 19.4037 96.0793 19.9084C95.1709 20.413 94.4644 20.8672 93.9598 21.2709C92.9505 22.1793 92.1178 23.34 91.4618 24.753C90.8562 26.166 90.5029 27.6295 90.402 29.1434H103.876Z" fill="#FFA319"/>
<path d="M144.874 23.5418C144.874 22.5325 144.774 21.7503 144.572 21.1952C144.37 20.6401 143.966 20.2364 143.36 19.9841C142.957 19.8327 142.553 19.7318 142.149 19.6813C141.796 19.6308 141.367 19.5804 140.862 19.5299C140.711 19.5299 140.534 19.5047 140.333 19.4542C140.181 19.3533 140.106 19.1514 140.106 18.8486C140.106 18.4449 140.232 18.243 140.484 18.243C140.736 18.1926 140.989 18.1673 141.241 18.1673H150.93V44.2829C150.93 45.3427 151.056 46.1753 151.309 46.7809C151.612 47.336 151.94 47.765 152.293 48.0678C152.696 48.3201 153.075 48.4967 153.428 48.5976C153.832 48.6481 154.16 48.6733 154.412 48.6733C154.715 48.6733 155.094 48.749 155.548 48.9004C156.002 49.0014 156.229 49.2537 156.229 49.6574C156.229 50.0611 155.876 50.3387 155.169 50.4901C154.463 50.591 153.807 50.6919 153.201 50.7929C152.04 50.9947 151.056 51.2975 150.249 51.7012C149.492 52.0545 148.836 52.4077 148.281 52.761C147.726 53.1142 147.246 53.417 146.843 53.6694C146.439 53.9721 146.035 54.1235 145.631 54.1235C145.177 54.1235 144.925 53.8964 144.874 53.4423C144.874 52.9881 144.874 52.5844 144.874 52.2311V48.1435C144.319 48.749 143.638 49.4051 142.831 50.1116C142.074 50.8181 141.191 51.4741 140.181 52.0797C139.222 52.6853 138.137 53.1647 136.926 53.518C135.715 53.9217 134.428 54.1235 133.066 54.1235C130.845 54.1235 129.104 53.7198 127.843 52.9124C126.581 52.0545 125.673 51.1966 125.117 50.3387C124.26 49.0771 123.654 47.5379 123.301 45.7211C122.998 43.9044 122.847 42.2138 122.847 40.6494V23.3905C122.847 22.2298 122.645 21.4223 122.241 20.9681C121.837 20.4635 121.333 20.085 120.727 19.8327C120.222 19.6308 119.844 19.5551 119.592 19.6056C119.339 19.6561 119.087 19.6308 118.835 19.5299C118.38 19.4794 118.153 19.2776 118.153 18.9243C118.153 18.8234 118.179 18.672 118.229 18.4701C118.33 18.2683 118.608 18.1673 119.062 18.1673H128.902V41.4064C128.902 42.7185 128.978 43.9044 129.129 44.9642C129.331 45.9735 129.659 46.9071 130.113 47.765C130.87 49.2284 131.754 50.1621 132.763 50.5658C133.823 50.919 134.706 51.0956 135.412 51.0956C136.169 51.0956 137.002 50.9443 137.91 50.6415C138.869 50.2882 139.778 49.8088 140.635 49.2032C141.544 48.5472 142.351 47.7902 143.058 46.9323C143.815 46.0744 144.42 45.1156 144.874 44.0558V23.5418Z" fill="#FFA319"/>
<path d="M172.401 23.1634C173.865 21.3971 175.631 19.9588 177.7 18.8486C179.819 17.7384 181.939 17.1833 184.058 17.1833C186.481 17.1833 188.348 17.6627 189.66 18.6215C190.972 19.5804 191.956 20.6149 192.612 21.7251C193.268 22.8858 193.722 24.2231 193.975 25.7371C194.278 27.2005 194.429 28.9164 194.429 30.8845V47.0837C194.429 47.9416 194.479 48.7238 194.58 49.4303C194.681 50.0864 195.11 50.6415 195.867 51.0956C196.22 51.2975 196.599 51.4489 197.003 51.5498C197.457 51.6003 197.961 51.676 198.517 51.7769C198.668 51.8274 198.819 51.8779 198.971 51.9283C199.122 51.9788 199.198 52.1302 199.198 52.3825C199.198 52.5844 199.147 52.761 199.046 52.9124C198.996 53.0638 198.769 53.1395 198.365 53.1395H184.437C183.932 53.1395 183.68 52.9124 183.68 52.4582C183.68 52.1554 183.73 51.9788 183.831 51.9283C183.932 51.8779 184.084 51.8274 184.286 51.7769C184.992 51.676 185.446 51.6003 185.648 51.5498C185.9 51.4489 186.077 51.3984 186.178 51.3984C187.339 50.9947 187.995 50.4144 188.146 49.6574C188.297 48.85 188.373 47.9921 188.373 47.0837V30.1275C188.373 28.3612 188.297 26.9482 188.146 25.8885C187.995 24.8287 187.717 23.9456 187.313 23.2391C186.809 22.2298 186.153 21.4728 185.345 20.9681C184.538 20.4635 183.478 20.2112 182.166 20.2112C181.258 20.2112 180.299 20.3878 179.289 20.741C178.331 21.0943 177.397 21.5989 176.489 22.255C175.58 22.8606 174.773 23.5923 174.066 24.4502C173.36 25.3081 172.805 26.2165 172.401 27.1753V47.0837C172.401 47.9416 172.452 48.7238 172.552 49.4303C172.653 50.0864 173.082 50.6415 173.839 51.0956C174.193 51.2975 174.571 51.4489 174.975 51.5498C175.429 51.6003 175.934 51.676 176.489 51.7769C176.64 51.8274 176.791 51.8779 176.943 51.9283C177.094 51.9788 177.17 52.1302 177.17 52.3825C177.17 52.5844 177.12 52.761 177.019 52.9124C176.968 53.0638 176.741 53.1395 176.337 53.1395H162.409C161.904 53.1395 161.652 52.9124 161.652 52.4582C161.652 52.1554 161.703 51.9788 161.803 51.9283C161.904 51.8779 162.056 51.8274 162.258 51.7769C162.964 51.676 163.418 51.6003 163.62 51.5498C163.872 51.4489 164.049 51.3984 164.15 51.3984C165.311 50.9947 165.967 50.4144 166.118 49.6574C166.27 48.85 166.345 47.9921 166.345 47.0837V27.0239C166.345 25.9642 166.194 25.1567 165.891 24.6016C165.639 23.996 165.311 23.5671 164.907 23.3148C164.554 23.012 164.175 22.8353 163.772 22.7849C163.368 22.6839 163.065 22.6335 162.863 22.6335C162.56 22.6335 162.182 22.583 161.728 22.4821C161.274 22.3307 161.046 22.0531 161.046 21.6494C161.046 21.2457 161.4 20.9934 162.106 20.8924C162.813 20.741 163.469 20.6149 164.074 20.514C165.235 20.3121 166.194 20.0345 166.951 19.6813C167.758 19.2776 168.44 18.8991 168.995 18.5458C169.55 18.1926 170.029 17.8898 170.433 17.6375C170.837 17.3347 171.24 17.1833 171.644 17.1833C172.098 17.1833 172.325 17.4104 172.325 17.8646C172.376 18.3187 172.401 18.7225 172.401 19.0757V23.1634Z" fill="#FFA319"/>
<path d="M203.559 35.6534C203.559 32.5246 204.089 29.749 205.149 27.3267C206.209 24.9044 207.546 22.9615 209.161 21.498C211.18 19.6308 213.249 18.4449 215.368 17.9402C217.538 17.4356 219.506 17.1833 221.272 17.1833C223.039 17.1833 224.982 17.4356 227.101 17.9402C229.271 18.4449 231.365 19.6308 233.384 21.498C234.999 22.9615 236.336 24.9044 237.396 27.3267C238.456 29.749 238.986 32.5246 238.986 35.6534C238.986 38.7822 238.456 41.5578 237.396 43.9801C236.336 46.4024 234.999 48.3453 233.384 49.8088C231.365 51.676 229.271 52.8619 227.101 53.3666C224.982 53.8712 223.039 54.1235 221.272 54.1235C219.506 54.1235 217.538 53.8712 215.368 53.3666C213.249 52.8619 211.18 51.676 209.161 49.8088C207.546 48.3453 206.209 46.4024 205.149 43.9801C204.089 41.5578 203.559 38.7822 203.559 35.6534ZM210.523 36.259C210.523 38.2776 210.675 40.1952 210.978 42.012C211.331 43.7782 211.936 45.4184 212.794 46.9323C213.501 48.1435 214.258 49.1023 215.065 49.8088C215.923 50.5153 216.731 51.0452 217.488 51.3984C218.245 51.7517 218.951 51.9788 219.607 52.0797C220.314 52.1302 220.869 52.1554 221.272 52.1554C221.676 52.1554 222.206 52.1302 222.862 52.0797C223.569 51.9788 224.3 51.7517 225.057 51.3984C225.814 51.0452 226.597 50.5153 227.404 49.8088C228.262 49.1023 229.044 48.1435 229.751 46.9323C230.608 45.4184 231.189 43.7782 231.492 42.012C231.845 40.1952 232.021 38.2776 232.021 36.259C232.021 33.2311 231.794 30.7836 231.34 28.9164C230.937 26.9987 230.381 25.4595 229.675 24.2988C228.968 23.0877 228.211 22.1541 227.404 21.498C226.597 20.7915 225.814 20.2869 225.057 19.9841C224.3 19.6308 223.569 19.4037 222.862 19.3028C222.206 19.2019 221.676 19.1514 221.272 19.1514C220.869 19.1514 220.314 19.2019 219.607 19.3028C218.951 19.4037 218.245 19.6308 217.488 19.9841C216.731 20.2869 215.948 20.7915 215.141 21.498C214.334 22.1541 213.577 23.0877 212.87 24.2988C212.164 25.4595 211.583 26.9987 211.129 28.9164C210.725 30.7836 210.523 33.2311 210.523 36.259Z" fill="#FFA319"/>
<path d="M247.845 3.93626C247.845 2.82603 248.224 1.89243 248.981 1.13546C249.738 0.378486 250.671 0 251.781 0C252.892 0 253.825 0.378486 254.582 1.13546C255.339 1.89243 255.718 2.82603 255.718 3.93626C255.718 5.04648 255.339 5.98008 254.582 6.73705C253.825 7.49403 252.892 7.87251 251.781 7.87251C250.671 7.87251 249.738 7.49403 248.981 6.73705C248.224 5.98008 247.845 5.04648 247.845 3.93626ZM249.435 27.0239C249.435 25.9642 249.283 25.1567 248.981 24.6016C248.728 23.996 248.4 23.5671 247.997 23.3148C247.643 23.012 247.265 22.8353 246.861 22.7849C246.457 22.6839 246.155 22.6335 245.953 22.6335C245.751 22.6335 245.398 22.583 244.893 22.4821C244.388 22.3812 244.136 22.1288 244.136 21.7251C244.136 21.2205 244.489 20.9177 245.196 20.8167C245.902 20.7158 246.558 20.6149 247.164 20.514C248.325 20.3121 249.309 20.0345 250.116 19.6813C250.924 19.2776 251.605 18.8991 252.16 18.5458C252.715 18.1926 253.169 17.8898 253.522 17.6375C253.926 17.3347 254.33 17.1833 254.734 17.1833C255.087 17.1833 255.289 17.3347 255.339 17.6375C255.44 17.8898 255.491 18.1673 255.491 18.4701V47.3865C255.491 48.2444 255.566 49.0518 255.718 49.8088C255.92 50.5153 256.576 51.0452 257.686 51.3984C257.736 51.3984 257.888 51.4489 258.14 51.5498C258.392 51.6003 258.872 51.676 259.578 51.7769C259.78 51.8274 259.932 51.8779 260.032 51.9283C260.133 51.9788 260.184 52.1302 260.184 52.3825C260.184 52.8872 259.932 53.1395 259.427 53.1395H245.499C244.994 53.1395 244.742 52.8872 244.742 52.3825C244.742 52.1302 244.792 51.9788 244.893 51.9283C244.994 51.8779 245.145 51.8274 245.347 51.7769C246.054 51.676 246.533 51.6003 246.785 51.5498C247.038 51.4489 247.189 51.3984 247.24 51.3984C248.35 51.0452 248.981 50.5153 249.132 49.8088C249.334 49.0518 249.435 48.2444 249.435 47.3865V27.0239Z" fill="#FFA319"/>
<path d="M286.403 24.1474C286.403 22.4316 285.898 21.17 284.889 20.3626C283.88 19.5551 282.593 19.1514 281.028 19.1514C279.212 19.1514 277.698 19.6056 276.487 20.514C275.326 21.3719 274.544 22.5578 274.14 24.0717C273.989 24.5764 273.837 25.1315 273.686 25.7371C273.534 26.3426 273.307 26.923 273.004 27.4781C272.702 27.9828 272.298 28.4117 271.793 28.765C271.339 29.1182 270.734 29.2948 269.977 29.2948C268.917 29.2948 268.185 28.9668 267.781 28.3108C267.378 27.6547 267.176 26.9735 267.176 26.2669C267.176 25.1063 267.579 24.0213 268.387 23.012C269.194 22.0027 270.027 21.1952 270.885 20.5897C271.995 19.7822 273.105 19.1514 274.216 18.6972C275.376 18.243 276.461 17.915 277.471 17.7132C278.53 17.4608 279.514 17.3094 280.423 17.259C281.331 17.2085 282.088 17.1833 282.694 17.1833C284.056 17.1833 285.495 17.3347 287.008 17.6375C288.573 17.9402 289.86 18.7225 290.869 19.9841C291.676 20.9934 292.131 22.0784 292.232 23.2391C292.383 24.3493 292.459 25.2576 292.459 25.9642V49.0518C292.459 49.3546 292.534 49.7583 292.686 50.263C292.837 50.7172 293.19 50.9443 293.746 50.9443C294.351 50.9443 294.831 50.6667 295.184 50.1116C295.537 49.5565 295.815 49.0266 296.016 48.5219L296.546 47.1594C296.647 46.8566 296.748 46.6043 296.849 46.4024C296.95 46.1501 297.202 46.0239 297.606 46.0239C297.909 46.0239 298.111 46.1249 298.212 46.3267C298.363 46.4781 298.439 46.6295 298.439 46.7809C298.439 46.9323 298.388 47.1594 298.287 47.4622C298.237 47.765 298.035 48.3201 297.682 49.1275C297.48 49.6322 297.228 50.1873 296.925 50.7929C296.622 51.348 296.244 51.8779 295.789 52.3825C295.335 52.8872 294.78 53.2909 294.124 53.5937C293.518 53.9469 292.761 54.1235 291.853 54.1235C290.894 54.1235 290.087 53.9469 289.431 53.5937C288.825 53.2404 288.321 52.8115 287.917 52.3068C287.564 51.7517 287.311 51.1713 287.16 50.5658C287.059 49.9097 287.008 49.3041 287.008 48.749H286.403C284.687 50.5153 282.896 51.8526 281.028 52.761C279.161 53.6694 276.865 54.1235 274.14 54.1235C272.02 54.1235 270.355 53.7955 269.144 53.1395C267.933 52.5339 267.024 51.8022 266.419 50.9443C265.813 50.0864 265.435 49.2285 265.283 48.3705C265.132 47.4622 265.056 46.7809 265.056 46.3267C265.056 45.0651 265.309 43.9296 265.813 42.9203C266.368 41.8606 267.125 40.9018 268.084 40.0438C269.093 39.1355 270.279 38.3028 271.642 37.5458C273.055 36.7889 274.594 36.0571 276.259 35.3506C278.379 34.4422 280.297 33.7357 282.012 33.2311C283.728 32.7265 285.192 32.348 286.403 32.0956V24.1474ZM286.403 34.0638C283.829 34.7703 281.886 35.4011 280.574 35.9562C279.313 36.5113 278.329 36.9907 277.622 37.3944C275.402 38.6561 273.913 39.9934 273.156 41.4064C272.399 42.769 272.02 44.1063 272.02 45.4184C272.02 46.4781 272.222 47.3612 272.626 48.0678C273.03 48.7238 273.534 49.2537 274.14 49.6574C274.746 50.0611 275.376 50.3387 276.032 50.4901C276.688 50.6415 277.294 50.7172 277.849 50.7172C278.858 50.7172 279.842 50.5405 280.801 50.1873C281.811 49.7836 282.744 49.2285 283.602 48.5219C284.208 48.0678 284.738 47.6136 285.192 47.1594C285.696 46.6547 286.1 46.2258 286.403 45.8725V34.0638Z" fill="#FFA319"/>
<path fill-rule="evenodd" clip-rule="evenodd" d="M57.2714 35.3643C57.2714 51.172 44.4434 64 28.6357 64C12.828 64 0 51.172 0 35.3643C0 19.5061 12.828 6.72864 28.6357 6.72864C44.4434 6.72864 57.2714 19.5061 57.2714 35.3643ZM50.9584 44.152V25.8696C50.9584 21.9303 48.5342 14.4557 39.3425 14.4557C30.2013 14.4557 27.6761 21.8798 27.6256 25.8696V44.051C27.6256 44.1015 27.6256 48.0408 25.1004 50.6165C23.5853 52.1316 21.4136 52.8892 18.6359 52.8892C9.94926 52.8892 9.64623 45.0611 9.64623 44.152V26.4251C9.64623 25.5161 8.88868 24.809 7.97961 24.809C7.07054 24.809 6.31298 25.5161 6.31298 26.4251V44.152C6.31298 48.3438 8.88868 56.2224 18.6359 56.2224C22.3227 56.2224 25.3024 55.1113 27.4741 52.9397C31.0094 49.3539 30.9589 44.253 30.9589 44.051V25.8696C30.9589 25.5666 31.2114 17.789 39.3425 17.789C47.3221 17.789 47.6251 25.011 47.6251 25.8696V33.4452C46.009 32.0816 43.4838 31.0715 39.494 30.819C38.5849 30.7685 37.7769 31.425 37.7264 32.3846C37.6759 33.2937 38.3829 34.1017 39.292 34.1522C46.8171 34.6573 46.9181 37.1825 47.1201 42.6874C47.1538 43.1924 47.1874 43.7143 47.2211 44.253C47.2716 45.2631 48.0797 45.9701 49.0897 46.0206C50.0998 45.9701 50.9079 45.1621 50.9584 44.152Z" fill="#FFA319"/>
</svg>
